# xmcd
#
# Track frame offsets:
#	150
#	22760
#	49912
#	70430
#	119990
#	148446
#	170285
#	193701
#	212303
#	232298
#
# Disc length: 3487 seconds
#
# Revision: 2
# Processed by: cddbd v1.5.2PL0 Copyright (c) Steve Scherf et al.
# Submitted via: EZCDAudioConverter 8.0.2.1
#
DISCID=9c0d9d0a
DTITLE=Various Artist - st.  Phú Quang. Vol 06. Điều Giản Dị
DYEAR=2009
DGENRE=Contemporary Pop
TTITLE0=Quang Lý - Dòng sông không trở lại
TTITLE1=Ngọc Anh - Buổi sáng
TTITLE2=Hồng Nhung - Điều Giản Dị
TTITLE3=Trần Thu Hà - Phiêu diêu
TTITLE4=Thu Phương - Mơ về nơi xa lắm
TTITLE5=Phú Quang - Mùa thu và em
TTITLE6=Ngọc Anh - Đã có một thời
TTITLE7=Quang Lý - Hư ảo
TTITLE8=Ngọc Anh - Dương cầm lạnh
TTITLE9=Quang Lý - Tôi muốn mang hồ Gươm đi
EXTD=
EXTT0=
EXTT1=
EXTT2=
EXTT3=
EXTT4=
EXTT5=
EXTT6=
EXTT7=
EXTT8=
EXTT9=
PLAYORDER=
